<?xml version="1.0" encoding="utf-8"?>
<!-- Generator: Adobe Illustrator 19.0.0, SVG Export Plug-In . SVG Version: 6.00 Build 0)  -->
<svg version="1.1" id="Layer_1" xmlns="http://www.w3.org/2000/svg" xmlns:xlink="http://www.w3.org/1999/xlink" x="0px" y="0px"
	 viewBox="0 0 650 210" style="enable-background:new 0 0 650 210;" xml:space="preserve">
<style type="text/css">
	.st0{fill:#FFFFFF;}
	.st1{fill-rule:evenodd;clip-rule:evenodd;fill:#FFFFFF;}
	.st2{fill:#FCB91D;}
</style>
<g>
	<path class="st0" d="M469.4,168.1c-5.6,0-8.7,4.8-9.7,11c-1.1,6.6,1,10.3,5.9,10.3c4.9,0,8.9-3,10-10.1
		C476.6,173.1,474.9,168.1,469.4,168.1L469.4,168.1z M474.5,186.1c-2.2,3.3-5.8,4.9-9.6,4.9c-7.2,0-9.6-4.8-8.5-11.8
		c1.2-7.5,6.3-12.7,13.3-12.7c7,0,10.7,5.3,8.7,17.8c-2.1,13.3-7.3,20.6-16.3,20.6c-6.5,0-9.4-3.6-8.6-7.9c0.5-3,2.1-3.9,3.5-3.9
		c1.5,0,2.4,1.1,2.2,2.7c-0.2,1.6-1.4,2.5-2.9,2.4c-0.6-0.1-1.1-0.3-1.5-0.6c-0.5,4,2.9,5.9,7.3,5.9
		C468.9,203.5,472.5,198.9,474.5,186.1L474.5,186.1z"/>
	<path class="st0" d="M483,191.6c3.4,0.1,8.4,0.1,12,0l3.4-20.2C493.8,177.3,487,186.2,483,191.6L483,191.6z M494.6,193.2
		c-4.3-0.1-10.3,0-13.9,0.1l0.3-1.7c3.7-4.7,16.1-20.6,19.7-25.2h1.6c-1.2,5.9-3,16.8-4.4,25.3l6.5-0.2l-0.1,2l-6.7-0.1l-1,6.2
		c-0.2,1.8,0.4,2.1,2.2,2.1h2.5l-0.1,1.7c0,0-3.8-0.1-6.6-0.1c-2.8,0-6.8,0.1-6.8,0.1l0.1-1.7h2.4c2.3,0,2.9-0.3,3.2-2.1
		C493.8,197.8,494.3,195.6,494.6,193.2L494.6,193.2z"/>
	<path class="st0" d="M510.6,169.1c1.2-1.8,3.3-2.8,5.3-2.8c1.7,0,3.4,0.6,5.5,2.5c1.7,1.6,2.8,2.9,4.8,2.8c1,0,2-0.7,2.2-2.2
		c-0.2,0.1-0.5,0.1-0.7,0.1c-1.1,0-1.7-0.8-1.6-1.9c0-1.3,1-1.9,1.8-1.9c1,0,1.9,0.8,1.7,2.7c-0.2,2.6-1.2,4.7-3.8,7.4
		c-7.3,7.8-12.3,14.3-11.6,25c0.1,2.4-0.4,3.4-1.7,3.4c-1.5,0-2.2-1.3-2.2-3.7c0-9.3,6-17.4,13.6-24.7c1.1-1,2.5-2.1,3.4-3.6
		c-1,0.9-2.3,1.2-3.6,1.2c-2.3,0-4-1.1-5.9-2.4c-1.7-1.2-2.6-1.8-4-1.8c-2.2,0-3.8,1.9-4.5,6.1h-1.4c0.7-2.7,1.6-7.3,1.8-9.9
		c0.1,0.1,1.2,0.1,1.4,0L510.6,169.1L510.6,169.1z"/>
	<path class="st0" d="M437.6,82.9c0-2.3-1.2-3.6-3.3-3.6h-4V55.5h22.2c7.6,0,10.9,3.6,10.9,12v37.6c0,7.9,2.8,11.2,8.2,11.2
		c11,0,16.2-10.7,16.2-23.3V55.5h25.8v57.2c0,2.3,1.2,3.6,3.3,3.6h4v23.8h-21.1c-7,0-10.9-3.8-10.9-9.5v-1.2c0-0.8,0.2-2,0.2-2h-0.3
		c-4.2,9-13.5,14.6-23.8,14.6c-15.2,0-27.2-7.9-27.2-31.7V82.9L437.6,82.9z"/>
	<path class="st0" d="M520.9,77.7l0-45h25.8v22.8h16.1v22.2h-16.1v27.4c0,9.5,8.8,10.8,13.7,10.8c2.1,0,2.4-0.2,2.4-0.2v25.1
		c0,0-1.8,0-6,0c-12.2,0-35.9-3.6-35.9-32V77.7L520.9,77.7z"/>
	<path class="st0" d="M597.9,120.4c6.7,0,12.7-8.1,12.7-15v-1.3h-2.4c-8.2,0-17.6,2.5-17.6,9.2C590.6,117.3,592.9,120.4,597.9,120.4
		L597.9,120.4z M609.2,86.9h1v-1c0-8.1-3.4-11-9.8-11c-3.3,0-6.7,0.8-6.7,4.1v3.8H570v-9.4c0-18.9,21.7-19.9,30.5-19.9
		c26.8,0,35.6,15.1,35.6,34.5v24.7c0,2.3,1.2,3.6,3.3,3.6h5.7v23.8h-22.3c-7.4,0-10.1-5.1-10.1-8.9c0-0.7,0-1.5,0-1.5h-0.3
		c0,0-5.4,12.3-21.4,12.3c-14.3,0-26-10.5-26-27.3C564.8,89.7,597.3,86.9,609.2,86.9L609.2,86.9z"/>
	<path class="st0" d="M408.9,186.1c8.4,0.2,10.4-1.6,11.3-6c0.7-3.4,0-6.2-3-6.2c-3.6,0-6.6,2.6-8.1,11.3L408.9,186.1L408.9,186.1z
		 M422.2,191c-1.8,4.4-4.1,7.1-8.9,7.1c-6.8,0-8.6-4.7-7.3-12.8c1.5-8.5,6.2-12.8,11.5-12.8c5,0,6.2,3.3,5.5,7.4
		c-1.2,6.5-8,7.4-14.2,7.1c-1.1,7.4,0.8,9.6,4.7,9.6c3.6,0,5.8-2,7.3-6L422.2,191L422.2,191z"/>
	<path class="st0" d="M340.9,186.1c8.4,0.2,10.4-1.6,11.3-6c0.7-3.4,0-6.2-3-6.2c-3.6,0-6.6,2.6-8.1,11.3L340.9,186.1L340.9,186.1z
		 M354.1,191c-1.8,4.4-4.1,7.1-8.9,7.1c-6.8,0-8.6-4.7-7.3-12.8c1.5-8.5,6.2-12.8,11.5-12.8c5,0,6.2,3.3,5.5,7.4
		c-1.2,6.5-8,7.4-14.2,7.1c-1.1,7.4,0.8,9.6,4.7,9.6c3.6,0,5.8-2,7.3-6L354.1,191L354.1,191z"/>
	<path class="st0" d="M444.7,174c-1.4,0.1-3.7,0.2-6,0.2c0.1-0.2,0.3-1.5,0.3-1.7h1.2c5,0,6.6-2.4,7.8-6.7c0.2,0.1,1.4,0.1,1.6,0
		c0,0-1.3,4.3-2.4,11.1l-2.5,15.4c-0.3,1.8,0.3,2.3,2.5,2.3h3c-0.1,0.2-0.1,1.7-0.1,1.9c0,0-4.7-0.1-7.3-0.1c-2.6,0-7.3,0.1-7.3,0.1
		l0.1-1.9h2.9c2.2,0,2.8-0.5,3.2-2.3C442.5,188,444,179.2,444.7,174L444.7,174z"/>
	<path class="st0" d="M196.5,164.5c4.8,0,10.2-1.5,13.1-9.6l1-2.8l-27.7-66.4c-1-2.4-1.7-3-3.7-3h-3.2V55.5h21.4
		c4.9,0,8.5,2.8,10.2,7.9l12.9,39c1.7,5.3,3.2,15,3.2,15h0.3c0,0,1.5-9.8,2.9-15l9.7-39c1.2-5.1,5.8-7.9,10.4-7.9h21.9v27.2h-3.2
		c-2,0-3.2,0.6-4.1,3l-26.5,76.8c-7.5,21.4-22.6,29.1-36.5,29.1c-15.1,0-24.6-10.3-24.6-10.3l10.5-22.9
		C184.4,158.3,189.5,164.5,196.5,164.5L196.5,164.5z"/>
	<path class="st0" d="M304,120.4c6.7,0,12.6-8.1,12.6-15v-1.3h-2.4c-8.2,0-17.6,2.5-17.6,9.2C296.7,117.3,299,120.4,304,120.4
		L304,120.4z M315.3,86.9h1v-1c0-8.1-3.4-11-9.8-11c-3.3,0-6.7,0.8-6.7,4.1v3.8H276v-9.4c0-18.9,21.7-19.9,30.5-19.9
		c26.8,0,35.6,15.1,35.6,34.5v24.7c0,2.3,1.2,3.6,3.3,3.6h5.7v23.8h-22.3c-7.4,0-10.1-5.1-10.1-8.9c0-0.7,0-1.5,0-1.5h-0.3
		c0,0-5.4,12.3-21.4,12.3c-14.3,0-26-10.5-26-27.3C270.8,89.7,303.4,86.9,315.3,86.9L315.3,86.9z"/>
	<path class="st0" d="M389.4,118.6c8,0,15-7.2,15-20.2c0-12.7-6.1-20.9-15-20.9c-7.7,0-15,6.2-15,20.9
		C374.4,108.6,379.3,118.6,389.4,118.6L389.4,118.6z M349.4,50.1c0-2.3-1.2-3.6-3.3-3.6h-4V22.6h22.1c7.6,0,10.9,3.6,10.9,12v19.9
		c0,4.3-0.3,7.2-0.3,7.2h0.3c0,0,7.1-8.2,20.7-8.2c20.8,0,34.5,18.1,34.5,44.4c0,26.8-15.3,44.2-35.7,44.2c-14.1,0-21-8.7-21-8.7
		h-0.3c0,0,0.1,2.1,0.1,4.8v2h-24.1V50.1L349.4,50.1z"/>
	<path class="st0" d="M364.2,177.2c-0.7,2.8,0.5,4.4,5,5.8c5.6,1.7,6.8,4.6,6,8.4c-0.8,3.5-3.9,5.9-8.8,5.9c-4.6,0-8-2.1-7.4-6.1
		c0.2-1.4,1.2-2.3,2.5-2.3c1.4,0,1.9,1,1.7,2.2c-0.3,1.6-1.8,2.1-2.9,1.6c0.3,2,2.9,3.2,6.1,3.2c3.5,0,6.1-1.4,6.7-3.9
		c0.6-2.9-0.2-4.6-5.5-6.1c-4.8-1.5-6.4-4.1-5.5-8c0.8-3.6,4-5.8,8.3-5.8c3.7,0,6.9,1.7,6.5,5.4c-0.2,1.9-1.5,2.7-2.6,2.7
		c-1.2,0-1.9-0.9-1.8-2.1c0.2-1.6,1.7-2,3-1.7c-0.4-2-2.6-3-5.2-3C367.1,173.4,364.7,175,364.2,177.2L364.2,177.2z"/>
	<path class="st1" d="M339.3,159.1l-7.6,1.3v0.3c0.5-0.1,1-0.1,1.5-0.1c0.5,0,1.1,0.2,1.5,0.6c0.3,0.3,0.5,0.7,0.5,1.2
		c0,0.6-0.1,1.3-0.3,1.9c-0.2,0.8-0.4,1.6-0.6,2.4l-2.5,9.5l-0.4-0.5c-0.5-0.7-1.2-1.4-1.9-1.9c-0.7-0.4-1.5-0.5-2.3-0.5
		c-2.1,0-4.1,1-5.8,2.2c-2.7,1.9-4.9,4.3-6.5,7.3c-1.4,2.5-2.5,5.4-2.5,8.4c0,1.7,0.4,3.4,1.4,4.7c0.9,1.1,2,1.7,3.3,1.7
		c1.5,0,2.8-0.7,4-1.5c2.7-1.9,5.2-5.4,7-8.3l1.1-1.8l-1.5,5.5c-0.3,1.2-0.7,2.7-0.7,4c0,0.5,0.1,1.2,0.4,1.6
		c0.3,0.3,0.5,0.5,0.9,0.5c0.9,0,1.8-0.7,2.5-1.4c1-1,1.9-2.4,2.7-3.7l-0.3-0.2c-0.5,0.9-1.2,2.3-1.8,2.9c-0.2,0.2-0.4,0.4-0.7,0.4
		c-0.2,0-0.4-0.2-0.6-0.4c-0.1-0.2-0.2-0.4-0.2-0.7c0-1,0.5-2.6,0.7-3.6L339.3,159.1L339.3,159.1z M330.7,178.1
		c0,3.8-2.1,7.8-4.1,10.8c-1.5,2.3-4.4,6.2-7.3,6.2c-1,0-1.8-0.4-2.5-1.2c-0.8-0.9-1-2.1-1-3.3c0-4,1.6-7.8,3.7-10.9
		c1.7-2.5,4.3-5.8,7.3-5.8c1.1,0,2,0.3,2.8,1.2C330.3,175.8,330.7,176.9,330.7,178.1L330.7,178.1z M405.8,159.1l-7.6,1.3v0.3
		c0.5-0.1,1-0.1,1.5-0.1c0.5,0,1.1,0.2,1.5,0.6c0.3,0.3,0.5,0.7,0.5,1.2c0,0.6-0.1,1.3-0.3,1.9c-0.2,0.8-0.4,1.6-0.6,2.4l-2.5,9.5
		l-0.4-0.5c-0.5-0.7-1.2-1.4-1.9-1.9c-0.7-0.4-1.5-0.5-2.3-0.5c-2.1,0-4.1,1-5.8,2.2c-2.7,1.9-4.9,4.3-6.5,7.3
		c-1.4,2.5-2.5,5.4-2.5,8.4c0,1.7,0.4,3.4,1.4,4.7c0.9,1.1,2,1.7,3.3,1.7c1.5,0,2.8-0.7,4-1.5c2.7-1.9,5.2-5.4,7-8.3l1.1-1.8
		l-1.5,5.5c-0.3,1.2-0.7,2.7-0.7,4c0,0.5,0.1,1.2,0.4,1.6c0.3,0.3,0.5,0.5,0.9,0.5c0.9,0,1.8-0.7,2.5-1.4c1-1,1.9-2.4,2.7-3.7
		l-0.3-0.2c-0.5,0.9-1.2,2.3-1.8,2.9c-0.2,0.2-0.4,0.4-0.7,0.4c-0.2,0-0.4-0.2-0.6-0.4c-0.1-0.2-0.2-0.4-0.2-0.7
		c0-1,0.5-2.6,0.7-3.6L405.8,159.1L405.8,159.1z M397.2,178.1c0,3.8-2.1,7.8-4.1,10.8c-1.5,2.3-4.4,6.2-7.3,6.2
		c-1,0-1.8-0.4-2.5-1.2c-0.8-0.9-1-2.1-1-3.3c0-4,1.6-7.8,3.7-10.9c1.7-2.5,4.3-5.8,7.3-5.8c1,0,2,0.3,2.8,1.2
		C396.8,175.8,397.2,176.9,397.2,178.1L397.2,178.1z"/>
	<path class="st2" d="M73.4,5C32.7,5.1,4.9,78.2,5,120.8c0.1,42.5,30.9,77,68.9,76.8c37.9-0.1,68.6-34.7,68.5-77.3
		C142.3,77.8,114.1,4.9,73.4,5L73.4,5z"/>
	<path class="st0" d="M100.6,101.1c-4.2,20.1-8.7,27-13.2,26.7c-4.7-0.3-4.8-5.3-2.1-17.2c4-18.5,9.3-26.6,13.9-26.3
		C103.1,84.6,103.4,88.1,100.6,101.1L100.6,101.1z M106.3,75c-6.8,0-12.1,3.6-16.2,11.6c-1.7,3.2-3.3,6.8-4.7,10.4
		c1.5-8.3,2.9-15.8,3.5-18.9l1.4-7.6c0.8-4.6,2-10.9,2-17.5c-5.8,0.2-18.2,0.2-24,0l-0.7,9.7h2.2c4.1,0,4.2,2.7,3.7,6.5
		c-0.3,2.3-1.4,7.7-1.4,7.7l-4.4,23.5c-4.1,22.4-9.6,27.6-13.2,27.6c-3.1,0-3.7-5.9-1.2-16l3.2-13.7c2.2-9.4,2.3-16.7-1.5-20.4
		c-1.9-1.8-4.6-2.8-8.6-2.8c-6.5,0-10,3.1-11.8,5.8c-1.4,2.1-1.9,4-1.9,4s9.6-0.2,7.6,8.7l-5,18.1c-3.4,14.7-1.9,25.1,10.7,25.1
		c6.7,0,12.8-3.5,17.2-12.1l-0.5,2.5c-2.9,15.4-4.5,28.1-16.6,28.1c-4.3,0-7.3-1.4-9.1-3.4c4.2,1,8.3-1.5,8.6-6.5
		c0.2-4.2-2.5-6.7-6.3-6.7c-4.2,0-7.4,2.8-8,7.8c-0.9,6.4,3.8,12.8,16.1,12.8c13.3,0,23.8-2.9,29.2-19.2c0,0,2.6-8.2,3.3-15.4
		c0.9,5.8,4.6,12.1,13.4,12.1c11.7,0,22.7-10,25.8-36.7C121.3,83.2,115.5,75,106.3,75L106.3,75z"/>
</g>
</svg>
