<?xml version="1.0" encoding="utf-8"?>
<!-- Generator: Adobe Illustrator 19.0.0, SVG Export Plug-In . SVG Version: 6.00 Build 0)  -->
<svg version="1.1" id="Layer_1" xmlns="http://www.w3.org/2000/svg" xmlns:xlink="http://www.w3.org/1999/xlink" x="0px" y="0px"
	 viewBox="0 0 150 210" style="enable-background:new 0 0 150 210;" xml:space="preserve">
<style type="text/css">
	.st0{fill:#FFFFFF;}
</style>
<g>
	<path class="st0" d="M100.4,88.1c-4.6-0.3-9.8,7.7-13.9,26.3c-2.7,11.9-2.6,16.9,2.1,17.2c4.5,0.3,9-6.6,13.2-26.7
		C104.7,91.8,104.3,88.3,100.4,88.1z"/>
	<path class="st0" d="M74.7,8.7C34,8.8,6.2,81.9,6.3,124.5c0.1,42.5,30.9,77,68.9,76.8c37.9-0.1,68.6-34.7,68.5-77.3
		C143.6,81.5,115.4,8.6,74.7,8.7z M120.6,104.1c-3.1,26.8-14.1,36.7-25.8,36.7c-8.8,0-12.5-6.3-13.4-12.1
		c-0.7,7.2-3.3,15.4-3.3,15.4c-5.3,16.3-15.8,19.2-29.2,19.2c-12.3,0-17-6.4-16.1-12.8c0.7-4.9,3.8-7.8,8-7.8c3.8,0,6.5,2.5,6.3,6.7
		c-0.3,5.1-4.4,7.5-8.6,6.5c1.8,2.1,4.8,3.4,9.1,3.4c12.2,0,13.7-12.7,16.6-28.1l0.5-2.5c-4.4,8.6-10.5,12.1-17.2,12.1
		c-12.6,0-14.1-10.5-10.7-25.1l5-18.1c2-8.9-7.6-8.7-7.6-8.7s0.4-1.9,1.9-4c1.9-2.7,5.4-5.8,11.8-5.8c3.9,0,6.7,1,8.6,2.8
		c3.9,3.7,3.7,11,1.5,20.4l-3.2,13.7c-2.5,10.1-1.9,16,1.2,16c3.6,0,9.1-5.2,13.2-27.6l4.4-23.5c0.1,0,1.1-5.5,1.4-7.7
		c0.6-3.8,0.4-6.5-3.7-6.5H69l0.7-9.7c5.8,0.2,18.2,0.2,24,0c0,6.7-1.2,12.9-2,17.5l-1.4,7.6c-0.6,3.1-2,10.6-3.5,18.9
		c1.4-3.7,3-7.2,4.7-10.4c4.1-8,9.4-11.6,16.2-11.6C116.8,78.7,122.6,86.9,120.6,104.1z"/>
</g>
</svg>
